<svg xmlns="http://www.w3.org/2000/svg" xmlns:xlink="http://www.w3.org/1999/xlink" version="1.1" x="0px" y="0px" viewBox="0 0 504.001 469.4525" style="enable-background:new 0 0 504.001 375.562;" xml:space="preserve"><g><path d="M229.626,204.141H87.229c-2.209,0-4,1.791-4,4v25.162H26.485c-2.209,0-4,1.791-4,4v84.002   c0,29.917,24.34,54.257,54.257,54.257h116.31c2.209,0,4-1.791,4-4v-44.645h32.574c2.209,0,4-1.791,4-4V208.141   C233.626,205.932,231.835,204.141,229.626,204.141z M189.052,367.562H76.742c-25.506,0-46.257-20.751-46.257-46.257v-80.002h52.744   v31.982H59.172c-2.209,0-4,1.791-4,4s1.791,4,4,4h24.091c0.71,25.281,21.482,45.632,46.931,45.632h58.857V367.562z    M225.626,318.917h-95.432c-21.485,0-38.965-17.479-38.965-38.965v-67.812h134.396V318.917z"/><path d="M115.173,246.322h28.341c2.209,0,4-1.791,4-4s-1.791-4-4-4h-28.341c-2.209,0-4,1.791-4,4S112.964,246.322,115.173,246.322z   "/><path d="M352.76,77.314c6.256,6.255,16.255,6.918,23.258,1.543c4.036-3.098,6.543-7.786,6.877-12.862   c0.333-5.059-1.529-10.016-5.108-13.6c-10.186-10.197-26.576-23.921-46.821-31.389c-17.075-6.298-56.471-10.602-98.038-10.71   l-1.249-0.001c-27.602,0-63.376,1.779-91.99,9.211c-2.706-2.309-8.467-6.983-15.402-11.185   c-13.484-8.171-24.39-10.338-32.403-6.444c-8.109,3.938-12.75,14.269-13.793,30.705c-0.536,8.444,0.026,16.257,0.381,19.968   c-30.397,24.086-59.749,55.566-73.989,71.532c-3.201,3.59-4.777,8.208-4.437,13.004c0.34,4.796,2.552,9.146,6.229,12.248   c7.351,6.203,18.131,5.453,24.542-1.713c1.588-1.775,3.213-3.575,4.867-5.389v23.033c0,8.286,6.292,15.199,14.324,15.738   c0.356,0.024,0.712,0.036,1.065,0.036c3.907,0,7.594-1.452,10.476-4.147c3.1-2.899,4.878-6.99,4.878-11.225v-55.296   c26.903-26.217,50.063-44.057,67.037-51.628c14.94-6.665,40.471-11.134,72.189-12.668V161.12c0,8.476,6.896,15.371,15.371,15.371   s15.371-6.896,15.371-15.371V45.519c39.43,0.384,71.632,4.643,82.357,8.599C332.91,59.34,345.06,69.614,352.76,77.314z    M95.377,9.075c6.728-3.266,17.127,1.477,24.666,6.03c3.948,2.385,7.533,4.979,10.3,7.125c-3.96,1.293-7.734,2.713-11.257,4.285   c-10.522,4.694-21.771,11.823-33.038,20.215C85.381,34.007,86.282,13.492,95.377,9.075z M232.407,37.493c-0.004,0-0.008,0-0.012,0   c-1.059,0-2.074,0.42-2.824,1.167c-0.753,0.75-1.176,1.77-1.176,2.833V161.12c0,4.064-3.307,7.371-7.371,7.371   s-7.371-3.307-7.371-7.371V41.896c0-1.088-0.443-2.13-1.229-2.884c-0.784-0.754-1.847-1.151-2.93-1.113   c-34.637,1.374-62.796,6.182-79.291,13.539c-18.342,8.182-42.088,26.483-70.576,54.393c-0.769,0.752-1.201,1.782-1.201,2.857v56.98   c0,2.058-0.832,3.969-2.343,5.382c-1.507,1.41-3.471,2.111-5.541,1.972c-3.847-0.258-6.859-3.665-6.859-7.755v-33.261   c0-1.643-1.004-3.118-2.531-3.721c-0.478-0.188-0.975-0.279-1.468-0.279c-1.087,0-2.151,0.443-2.923,1.269   c-4.104,4.391-8.11,8.77-11.908,13.015c-3.503,3.917-9.399,4.326-13.42,0.932c-2.012-1.697-3.222-4.077-3.408-6.7   c-0.186-2.623,0.677-5.149,2.428-7.113c20.341-22.807,71.964-77.777,111.893-95.588c28.764-12.831,75.332-15.524,109.33-15.524   l1.238,0.001c40.713,0.106,79.004,4.211,95.283,10.216c18.882,6.965,34.311,19.906,43.93,29.536   c1.952,1.955,2.967,4.659,2.785,7.421c-0.183,2.779-1.555,5.345-3.765,7.041c-3.83,2.94-9.304,2.572-12.73-0.854   c-8.266-8.266-21.377-19.321-36.896-25.045C309.496,42.176,275.025,37.62,232.407,37.493z"/><path d="M324.161,149.112c-1.12-1.203-2.861-1.598-4.393-0.997c-1.53,0.602-2.536,2.078-2.536,3.722v59.917   c0,2.019,1.505,3.722,3.508,3.97l144.366,17.896c0.165,0.021,0.329,0.03,0.493,0.03c1.227,0,2.396-0.564,3.16-1.549   c0.864-1.114,1.078-2.603,0.562-3.915c-0.466-1.185-11.619-29.151-29.573-40.434c-10.998-6.912-28.147-7.169-44.731-7.418   c-11.132-0.167-21.646-0.325-29.534-2.407C346.487,172.916,324.382,149.349,324.161,149.112z M435.492,194.526   c10.933,6.87,19.373,21.763,23.533,30.278l-133.793-16.585v-46.824c8.574,7.957,23.78,20.461,38.209,24.268   c8.832,2.331,19.821,2.496,31.455,2.67C410.38,188.566,426.389,188.806,435.492,194.526z"/><path d="M338.55,236.882l-86.322-26.521c-1.216-0.375-2.532-0.147-3.552,0.606c-1.021,0.754-1.623,1.947-1.623,3.217v106.424   c0,2.209,1.791,4,4,4h28.341c2.155,0,3.923-1.707,3.998-3.86c0.008-0.234,0.982-23.549,15.37-35.053   c14.545-11.63,38.104-10.197,38.338-10.182c1.102,0.083,2.194-0.31,3.005-1.065c0.811-0.757,1.271-1.816,1.271-2.925v-30.817   C341.375,238.949,340.228,237.398,338.55,236.882z M333.375,267.441c-8.229,0.081-26.518,1.538-39.609,12.006   c-13.496,10.791-17.097,29.174-18.042,37.161h-20.671v-97.011l78.322,24.064V267.441z"/><path d="M482.064,243.528c-1.493-1.291-3.713-1.294-5.218-0.014c-0.131,0.111-13.342,11.145-33.867,11.145   c-21.76,0-83.438-11.912-84.058-12.032c-1.172-0.227-2.385,0.081-3.307,0.841s-1.455,1.892-1.455,3.086v24.823   c0,1.771,1.164,3.331,2.862,3.835c12.749,3.783,47.959,15.34,57.652,23.277c11.021,9.023,13.313,25.71,13.335,25.87   c0.254,1.998,1.954,3.496,3.968,3.496h55.744c1.265,0,2.455-0.599,3.21-1.613c0.534-0.718,13.069-17.841,13.069-40.407   C504.001,262.768,482.96,244.302,482.064,243.528z M485.594,319.855h-50.29c-1.373-6.198-5.341-19.189-15.561-27.556   c-11.219-9.187-47.067-20.652-57.583-23.89v-17.024c15.139,2.842,61.682,11.273,80.819,11.273c17.828,0,30.658-7.148,36.141-10.881   c5.09,5.167,16.881,18.787,16.881,34.057C496.001,301.993,488.456,315.366,485.594,319.855z"/><path d="M481.32,281.834h-24.18c-2.209,0-4,1.791-4,4s1.791,4,4,4h24.18c2.209,0,4-1.791,4-4S483.529,281.834,481.32,281.834z"/></g></svg>