<svg xmlns="http://www.w3.org/2000/svg" data-name="Layer 1" viewBox="0 0 128 160" x="0px" y="0px"><title>ic_fuel_system_failure</title><path d="M23.86,21H14.14a6,6,0,0,0-6,6.21L9.76,74.07a9.25,9.25,0,0,0,18.48,0l1.62-46.86A6,6,0,0,0,23.86,21Zm.38,52.93a5.24,5.24,0,0,1-10.48,0L12.14,27.07a2,2,0,0,1,2-2.07h9.72a2,2,0,0,1,2,2.07Z"/><path d="M19,87A10,10,0,1,0,29,97,10,10,0,0,0,19,87Zm0,16a6,6,0,1,1,6-6A6,6,0,0,1,19,103Z"/><path d="M122,43.88l-2.74-11.63a8.25,8.25,0,0,0-2.21-4l-5-5a2,2,0,0,0-2.82,2.83l5,5a4.28,4.28,0,0,1,1.15,2l.8,3.4-1.05.53a8.45,8.45,0,0,0-4.59,6.51c0,.42-.35,4.08-.35,5.45A4.85,4.85,0,0,0,115,54h3V95.5a5.5,5.5,0,0,1-11,0v-29A9.51,9.51,0,0,0,97.5,57H92V25a2,2,0,0,0-2-2H49a2,2,0,0,0-2,2v78a2,2,0,0,0,2,2H90a2,2,0,0,0,2-2V61h5.5a5.51,5.51,0,0,1,5.5,5.5v29a9.5,9.5,0,0,0,19,0V44.33C122,43.9,122,44,122,43.88ZM88,101H51V27H88Zm27-51a1.07,1.07,0,0,1-1-1,38.39,38.39,0,0,1,.45-5,4.41,4.41,0,0,1,2.61-3.47l.94,4V50Z"/><path d="M58,56H81a2,2,0,0,0,2-2V34a2,2,0,0,0-2-2H58a2,2,0,0,0-2,2V54A2,2,0,0,0,58,56Zm2-20H79V52H60Z"/></svg>