<svg xmlns="http://www.w3.org/2000/svg" viewBox="0 0 64 80" x="0px" y="0px"><g><path d="M53,15h-.218A12.666,12.666,0,0,0,49,15.577L15.11,26.168A18.6,18.6,0,0,0,2,44a5.006,5.006,0,0,0,5,5H45.431a11.944,11.944,0,0,0,8.506-3.524,12.1,12.1,0,0,0,2.839-4.5l4.5-12.755A12.592,12.592,0,0,0,62,24,9.01,9.01,0,0,0,53,15Zm6.391,12.553-4.5,12.755a10.115,10.115,0,0,1-2.368,3.754A9.961,9.961,0,0,1,45.431,47H7a3,3,0,0,1-3-3A16.61,16.61,0,0,1,15.706,28.077L49.6,17.486A10.689,10.689,0,0,1,52.782,17H53a7.008,7.008,0,0,1,7,7A10.633,10.633,0,0,1,59.391,27.553Z"/><path d="M20,29a8,8,0,1,0,8,8A8.009,8.009,0,0,0,20,29Zm0,14a6,6,0,1,1,6-6A6.006,6.006,0,0,1,20,43Z"/><path d="M20,33a4,4,0,1,0,4,4A4,4,0,0,0,20,33Zm0,6a2,2,0,1,1,2-2A2,2,0,0,1,20,39Z"/><path d="M41,23A11,11,0,1,0,52,34,11.013,11.013,0,0,0,41,23Zm0,20a9,9,0,1,1,9-9A9.01,9.01,0,0,1,41,43Z"/><path d="M41,28a6,6,0,1,0,6,6A6.006,6.006,0,0,0,41,28Zm0,10a4,4,0,1,1,4-4A4,4,0,0,1,41,38Z"/></g></svg>