<svg xmlns="http://www.w3.org/2000/svg" viewBox="0 0 60 75" x="0px" y="0px"><path d="M57,11H53a3,3,0,0,0-3,3v2a2.993,2.993,0,0,0,2.018,2.821c0,.061-.018.118-.018.179v2H49.815A3,3,0,0,0,47,19H16a1.988,1.988,0,0,0-1.581.79A.98.98,0,0,1,14,19c0-.061-.014-.118-.018-.179A2.993,2.993,0,0,0,16,16V14a3,3,0,0,0-3-3H9a3,3,0,0,0-3,3v2a2.993,2.993,0,0,0,2.018,2.821c0,.061-.018.118-.018.179a.981.981,0,0,1-.42.792A1.991,1.991,0,0,0,6,19H5A4.995,4.995,0,0,0,.2,25.374l5.71,20A5.022,5.022,0,0,0,10.718,49H49A11.013,11.013,0,0,0,60,38V28a2.994,2.994,0,0,0-2.579-2.957A3.965,3.965,0,0,0,58,23V19c0-.061-.014-.118-.018-.179A2.993,2.993,0,0,0,60,16V14A3,3,0,0,0,57,11ZM53,23a1,1,0,0,0,1-1V19a1,1,0,0,1,2,0v4a2,2,0,0,1-2,2H51a1,1,0,0,1-1-1V23ZM8,16V14a1,1,0,0,1,1-1h4a1,1,0,0,1,1,1v2a.987.987,0,0,1-.812.962,2.969,2.969,0,0,0-4.376,0A.987.987,0,0,1,8,16Zm2,3a1,1,0,0,1,2,0,3,3,0,0,0,2,2.815V23a1,1,0,0,1-1,1H9a1,1,0,0,1-1-1V21.817A3,3,0,0,0,10,19Zm48,9V38a9.011,9.011,0,0,1-9,9H10.718a3.013,3.013,0,0,1-2.889-2.175l-5.71-20A2.992,2.992,0,0,1,5,21H6v2a3,3,0,0,0,3,3h4a3,3,0,0,0,3-3V21H47a1,1,0,0,1,1,1v2a3,3,0,0,0,3,3h6A1,1,0,0,1,58,28Zm0-12a.987.987,0,0,1-.812.962,2.969,2.969,0,0,0-4.376,0A.987.987,0,0,1,52,16V14a1,1,0,0,1,1-1h4a1,1,0,0,1,1,1Z"/><path d="M41,27H19a3,3,0,0,0-3,3V40a3,3,0,0,0,3,3H41a3,3,0,0,0,3-3V30A3,3,0,0,0,41,27Zm1,13a1,1,0,0,1-1,1H19a1,1,0,0,1-1-1V30a1,1,0,0,1,1-1H41a1,1,0,0,1,1,1Z"/><path d="M23.707,31.293a1,1,0,0,0-1.414,0l-2,2a1,1,0,1,0,1.414,1.414l2-2A1,1,0,0,0,23.707,31.293Z"/><path d="M28.293,31.293l-6,6a1,1,0,1,0,1.414,1.414l6-6a1,1,0,0,0-1.414-1.414Z"/></svg>