<svg xmlns="http://www.w3.org/2000/svg" data-name="Layer 1" viewBox="0 0 64 80" x="0px" y="0px"><title>Artboard 18</title><polygon points="47.08 22.48 52.23 15.22 48.16 15.22 43.29 22.48 47.08 22.48"/><path d="M41.52,21.54l4.23-6.32H42.14L39.67,18.9A20.56,20.56,0,0,1,41.52,21.54Z"/><path d="M39.73,15.22h-4a20.64,20.64,0,0,1,2.54,2.15Z"/><polygon points="52.23 31.75 47.08 24.48 43.35 24.48 48.5 31.75 52.23 31.75"/><path d="M43.83,36.63l1.92-2.88H44.27A21.54,21.54,0,0,1,43.83,36.63Z"/><path d="M44.14,29.05a20.46,20.46,0,0,1,.21,2.7h1.7Z"/><path d="M53.26,22.48l4.21-5.94a4.78,4.78,0,0,0-2.81-1.3l-5.13,7.24Z"/><path d="M49.53,24.48l5.13,7.25a4.88,4.88,0,0,0,2.66-1.16l-4.08-6.09Z"/><path d="M57.47,35.08a4.78,4.78,0,0,0-2.81-1.3L49.53,41h3.73Z"/><polygon points="47.08 41.02 52.23 33.75 48.16 33.75 43.29 41.02 47.08 41.02"/><polygon points="43.35 43.02 48.5 50.29 52.23 50.29 47.08 43.02 43.35 43.02"/><path d="M55.71,41H59V38.55a4.68,4.68,0,0,0-.31-1.68Z"/><path d="M49.53,43l5.13,7.24a4.74,4.74,0,0,0,2.66-1.16L53.24,43Z"/><path d="M58.57,47.38A4.72,4.72,0,0,0,59,45.5V43H55.65Z"/><path d="M58.65,18.33l-2.94,4.15H59V20A4.68,4.68,0,0,0,58.65,18.33Z"/><path d="M58.57,28.85A4.77,4.77,0,0,0,59,27V24.48H55.65Z"/><path d="M28.21,33.21a1,1,0,0,1,.71-.71l8.41-2.25a13.75,13.75,0,0,0-.95-3.54L28,29a.78.78,0,0,1-.26,0,1,1,0,0,1-.71-.3,1,1,0,0,1-.26-1L29,19.32a13.75,13.75,0,0,0-3.54-.95L23.2,26.79a1,1,0,0,1-.7.71l-.26,0a1,1,0,0,1-.71-.29l-6.17-6.17a14,14,0,0,0-2.59,2.59l6.17,6.17a1,1,0,0,1,.26,1,1,1,0,0,1-.71.7l-8.42,2.26A13.73,13.73,0,0,0,11,37.3L19.44,35a1,1,0,0,1,1,.26,1,1,0,0,1,.26,1l-2.25,8.42a13.73,13.73,0,0,0,3.54.94l2.25-8.41a1,1,0,0,1,.71-.71,1,1,0,0,1,1,.26L32,42.93a14,14,0,0,0,2.59-2.59l-6.16-6.16A1,1,0,0,1,28.21,33.21Zm-1.8,1.5a3.83,3.83,0,1,1,0-5.42A3.86,3.86,0,0,1,26.41,34.71Z"/><path d="M23.7,30.16A1.84,1.84,0,1,0,25,30.7,1.79,1.79,0,0,0,23.7,30.16Z"/><path d="M33.33,50.29H39.7l-2.22-2.9A20.25,20.25,0,0,1,33.33,50.29Z"/><path d="M36.89,18.8a18.66,18.66,0,1,0,0,26.4A18.62,18.62,0,0,0,36.89,18.8Zm-.15,22a15.41,15.41,0,0,1-1.91,2.31,16.24,16.24,0,0,1-2.33,1.93l0,0a15.76,15.76,0,0,1-8.77,2.66c-.33,0-.65,0-1,0h-.18a16,16,0,0,1-5.68-1.51l-.13-.07A15.78,15.78,0,0,1,9.58,39a.49.49,0,0,1-.06-.13A15.78,15.78,0,0,1,8,33.19.83.83,0,0,1,8,33a15.69,15.69,0,0,1,2.64-9.75h0a16,16,0,0,1,4.26-4.27l0,0a15.73,15.73,0,0,1,9.74-2.63.86.86,0,0,1,.22,0,15.66,15.66,0,0,1,5.65,1.51l.14.06a15.9,15.9,0,0,1,4.15,3,15.72,15.72,0,0,1,3,4.16l.06.13a15.71,15.71,0,0,1,1.51,5.67,1.49,1.49,0,0,1,0,.21,15.75,15.75,0,0,1-2.62,9.71Z"/><path d="M38.91,46l3.31,4.32h3.83l-5-7.07A20.73,20.73,0,0,1,38.91,46Z"/></svg>