<?xml version="1.0" encoding="UTF-8"?>
<svg id="Layer_1" data-name="Layer 1" xmlns="http://www.w3.org/2000/svg" viewBox="0 0 163.32 30.55">
  <defs>
    <style>
      .cls-1 {
        letter-spacing: -.02em;
      }

      .cls-2 {
        letter-spacing: -.02em;
      }

      .cls-3 {
        font-size: 25px;
      }

      .cls-3, .cls-4 {
        font-family: FONTSPRINGDEMO-ArgentCFBold, 'FONTSPRING DEMO - Argent CF';
        font-weight: 700;
      }

      .cls-3, .cls-5 {
        fill: #e42828;
      }

      .cls-4 {
        fill: #262626;
        font-size: 18px;
      }

      .cls-6 {
        letter-spacing: 0em;
      }

      .cls-7 {
        letter-spacing: -.02em;
      }

      .cls-8 {
        letter-spacing: -.01em;
      }

      .cls-9 {
        fill: #231f20;
      }

      .cls-9, .cls-5 {
        stroke-width: 0px;
      }
    </style>
  </defs>
  <path class="cls-5" d="m16.07,18.21c-.56-.79-1.1-1.69-.77-2.25.05-.08.1-.13.14-.17.24.49.61,1.17,1.12,1.95,1.09,1.66,1.92,2.31,2.15,2.51,1.07.92,2.36,1.53,2.33.24-.02-.86-.56-2.09-2.88-5.24-2.07-2.85-4.07-5.48-4.11-7.76-.01-.62.13-1.08.46-1.34,1.06-.82,3.62.92,4.21,1.33,1.11.76,2.92,2.28,4.32,5.16.1.1.08.25,0,.31-.07.04-.19.02-.26-.07-1.37-1.78-2.62-2.86-3.48-3.51-.9-.67-1.5-.95-1.79-.74-.14.1-.21.29-.2.57.02.98,1.01,2.48,2.62,4.74,1.63,2.28,4.59,6.04,4.65,8.68.01.56-.1,1.03-.44,1.28-.89.64-2.87-.74-4.17-1.65,0,0-2-1.4-3.88-4.04Z"/>
  <path class="cls-9" d="m11.92,5.08c.61-.81,1.36-1.09,1.36-1.09.56-.21,1.11-.21,1.73-.09,3.42.66,6.29,4.27,7.15,5.79.07.12.11.19.11.19,0,0-1.25-2.18-3.98-3.78-1.07-.63-2.62-1.54-3.9-.95-1.29.59-1.95,2.53-1.65,4.77.13,1.73.52,4.12,1.63,6.74,1.87,4.41,4.78,7.13,6.44,8.47-1.4-.88-2.97-2.11-4.46-3.78-1.2-1.35-1.99-2.59-2.44-3.35-1.21-2.08-1.81-3.96-2.12-5.12-.22-.83-1.51-5.66.12-7.8Z"/>
  <path class="cls-9" d="m20.48,25.98s-1.77,5.72-8.54,4.36c.58-.76.97-1.73.97-1.73,2.73.33,4.94,0,4.94,0v-.89c-4,.61-7.86-.8-7.86-.8.14-.29.25-.94.25-.94,1.34.28,3.8.42,3.8.42v-.99c-4.88-.42-6.36-1.34-6.36-1.34.52-.4.8-1.25.8-1.25.94.52,3.34.8,3.34.8v-.94c-3.24-.38-6.16-1.98-6.16-1.98.38-.42,1.18-1.31,1.18-1.31,1.93.66,3.67.7,3.67.7v-.84c-3.33-.36-6.17-1.89-6.17-1.89.85-.75,1.51-2.09,1.51-2.09,1.36.65,3.15,1.01,3.15,1.01l-.05-1c-3.43-.86-5.36-2.15-5.36-2.15.75-.66,1.41-1.84,1.41-1.84,1.51.61,2.97.71,2.97.71v-.8c-2.55-.44-4.8-1.6-4.8-1.6.8-.66,1.64-1.88,1.64-1.88,1.27.56,3.16.8,3.16.8l-.05-.99c-2.13-.28-4.24-1.32-4.24-1.32.71-.42,1.89-1.65,1.89-1.65,1.03.38,2.82.43,2.82.43l-.05-.85c-2.4-.25-3.81-.8-3.81-.8.94-.56,1.93-1.51,1.93-1.51.8.47,2.82.95,2.82.95l.24-.99c-1.9-.26-3.15-.88-3.93-1.42,1.85-.63,4.64-.73,7.98,1.89,0,0-6.29.36-2.05,12.95,0,0,2.61,7.24,8.96,10.77Z"/>
  <path class="cls-9" d="m5.47,1.41c-1.61,1.39-3.02,2-3.76,2.25.38-.65.85-1.27,1.41-1.83,0,0,.53-.55,1.5-1.05.51.4.85.63.85.63Z"/>
  <path class="cls-9" d="m4.44,4.23c-1.51,1.51-2.88,2.29-4.01,2.68.16-.7.38-1.39.67-2.05,1.29-.34,2.35-1.04,2.35-1.04.23.24.99.41.99.41Z"/>
  <path class="cls-9" d="m4.06,7.43c-1.54,1.61-2.92,2.61-4.06,3.22.01-.81.07-1.65.2-2.5,1.81-.67,2.73-1.42,2.73-1.42.33.28,1.13.7,1.13.7Z"/>
  <path class="cls-9" d="m4.15,10.92c-1.08,2.16-3.84,3.77-3.84,3.77-.13-.85-.25-1.85-.29-2.94,1.48-.87,2.49-1.63,2.49-1.63.66.33,1.64.8,1.64.8Z"/>
  <path class="cls-9" d="m5.1,15c-1.09,2.02-3.58,3.45-3.58,3.45l-.25.07c-.14-.4-.28-.82-.41-1.25,0,0-.17-.58-.36-1.54,1.42-.92,2.48-1.9,2.48-1.9.8.52,2.12,1.17,2.12,1.17Z"/>
  <path class="cls-9" d="m5.75,19.06c-.89,1.79-2.68,2.87-2.68,2.87l-.25.1c-.42-.78-.83-1.64-1.19-2.57,1.29-.77,2.05-1.48,2.05-1.48.76.42,2.07,1.08,2.07,1.08Z"/>
  <path class="cls-9" d="m7.64,22.73c-.39.99-2.5,2.75-2.5,2.75-.59-.71-1.17-1.52-1.74-2.44,1.06-.87,1.65-1.72,1.65-1.72.85.51,2.59,1.41,2.59,1.41Z"/>
  <path class="cls-9" d="m9.61,25.69c-.35.88-1.94,2.34-1.94,2.34-.59-.49-1.24-1.1-1.9-1.82.87-.83,1.3-1.36,1.3-1.36.71.37,2.54.84,2.54.84Z"/>
  <path class="cls-9" d="m12.06,28.42c-.33.57-.95,1.41-.95,1.41l-.31.23h-.01c-.14-.06-1.04-.46-2.28-1.37.57-.58,1.06-1.07,1.06-1.07.89.43,2.49.8,2.49.8Z"/>
  <text class="cls-3" transform="translate(24.94 24.07)"><tspan x="0" y="0">u</tspan><tspan class="cls-1" x="15.75" y="0">g</tspan><tspan class="cls-8" x="29.85" y="0">a</tspan><tspan x="43.17" y="0">thi</tspan></text>
  <text class="cls-4" transform="translate(106.33 24.07)"><tspan class="cls-7" x="0" y="0">M</tspan><tspan class="cls-6" x="14.54" y="0">o</tspan><tspan class="cls-2" x="24.39" y="0">t</tspan><tspan x="30.76" y="0">o</tspan><tspan class="cls-6" x="40.7" y="0">r</tspan><tspan x="49.27" y="0">s</tspan></text>
</svg>